<svg width="64px" height="64px" viewBox="0 0 1024 1024" xmlns="http://www.w3.org/2000/svg" fill="#808080" stroke="#808080"><g id="SVGRepo_bgCarrier" stroke-width="0"></g><g id="SVGRepo_tracerCarrier" stroke-linecap="round" stroke-linejoin="round"></g><g id="SVGRepo_iconCarrier"><path fill="#808080" d="M192 128v768h640V128H192zm-32-64h704a32 32 0 0 1 32 32v832a32 32 0 0 1-32 32H160a32 32 0 0 1-32-32V96a32 32 0 0 1 32-32z"></path><path fill="#808080" d="M672 128h64v768h-64zM96 192h128q32 0 32 32t-32 32H96q-32 0-32-32t32-32zm0 192h128q32 0 32 32t-32 32H96q-32 0-32-32t32-32zm0 192h128q32 0 32 32t-32 32H96q-32 0-32-32t32-32zm0 192h128q32 0 32 32t-32 32H96q-32 0-32-32t32-32z"></path></g></svg>